# xmcd
#
# Track frame offsets:
#	150
#	33721
#	51827
#	100054
#	112313
#	142612
#	150386
#	165437
#	171785
#	179468
#	188435
#	222865
#	239965
#	250530
#
# Disc length: 3754
#
# Revision: 1
# Processed by: cddbd v1.5.1PL0 Copyright (c) Steve Scherf et al.
# Submitted via: CDex 1.51
# Normalized: r0:TRMNUM
#
DISCID=b80ea80e
DTITLE=Daniel Casimir - Eros and Thanatos
DYEAR=2004
DGENRE=Jazz
TTITLE0=Tabea's Song
TTITLE1=The Teaser
TTITLE2=Train of Thoughts
TTITLE3=Till the Thrill
TTITLE4=Sculpture Dansante
TTITLE5=Introducing Merle
TTITLE6=Waltz for Merle
TTITLE7=Les Satellites
TTITLE8=En Orbite
TTITLE9=Ce qu'elle Fait Quand il n'est pas Là
TTITLE10=What I Miss
TTITLE11=By the River
TTITLE12=Adventuresome Sophie
TTITLE13=Eros et Thanatos
EXTD=YEAR: 2004
EXTT0=
EXTT1=
EXTT2=
EXTT3=
EXTT4=
EXTT5=
EXTT6=
EXTT7=
EXTT8=
EXTT9=
EXTT10=
EXTT11=
EXTT12=
EXTT13=
PLAYORDER=
